<svg id="undraw_fast_car_p4cu" xmlns="http://www.w3.org/2000/svg" width="382.794" height="307.576" viewBox="0 0 382.794 307.576">
  <path id="Path_56" data-name="Path 56" d="M482.4,255.9H434.914V243.819a2.7,2.7,0,0,0-2.456-2.89H418.514v-12.87a1.7,1.7,0,0,0-1.546-1.819H399.007a1.7,1.7,0,0,0-1.546,1.819v12.874H381.069a2.7,2.7,0,0,0-2.456,2.89v12.082H333.336a.55.55,0,0,0-.5.588V416.879a.55.55,0,0,0,.5.588h30.091a.549.549,0,0,0,.5-.588V395.3a.553.553,0,0,1,.5-.588h12.711a.553.553,0,0,1,.5.588v21.579a.55.55,0,0,0,.5.588h59.46a.553.553,0,0,0,.5-.588V395.3a.55.55,0,0,1,.5-.588H451.3a.549.549,0,0,1,.5.588v21.579a.553.553,0,0,0,.5.588h30.091a.553.553,0,0,0,.5-.588V256.488a.555.555,0,0,0-.492-.588ZM358.54,387.218a.545.545,0,0,1-.5.583H339.458a.46.46,0,0,1-.353-.169.639.639,0,0,1-.147-.414v-7.447a.549.549,0,0,1,.5-.588h18.6a.55.55,0,0,1,.5.588Zm0-19.3a.64.64,0,0,1-.144.415.462.462,0,0,1-.352.172H339.458a.461.461,0,0,1-.354-.171.64.64,0,0,1-.145-.417v-7.464a.64.64,0,0,1,.145-.417.461.461,0,0,1,.354-.171h18.6a.462.462,0,0,1,.352.172.64.64,0,0,1,.144.415Zm0-19.294a.55.55,0,0,1-.5.588H339.458a.549.549,0,0,1-.5-.588v-7.468a.549.549,0,0,1,.5-.588h18.6a.55.55,0,0,1,.5.588Zm0-19.3a.64.64,0,0,1-.144.415.462.462,0,0,1-.352.172H339.458a.461.461,0,0,1-.354-.171.64.64,0,0,1-.145-.417v-7.442a.64.64,0,0,1,.145-.417.461.461,0,0,1,.354-.171h18.6a.462.462,0,0,1,.352.172.64.64,0,0,1,.144.415Zm0-19.294a.55.55,0,0,1-.5.588H339.458a.549.549,0,0,1-.5-.588v-7.468a.639.639,0,0,1,.146-.414.46.46,0,0,1,.353-.169h18.6a.545.545,0,0,1,.5.583Zm0-19.294a.545.545,0,0,1-.5.583H339.458a.46.46,0,0,1-.353-.169.639.639,0,0,1-.146-.414v-7.468a.549.549,0,0,1,.5-.588h18.6a.55.55,0,0,1,.5.588Zm0-19.3a.64.64,0,0,1-.144.415.462.462,0,0,1-.352.172H339.458a.461.461,0,0,1-.354-.171.64.64,0,0,1-.145-.417V264a.64.64,0,0,1,.145-.417.461.461,0,0,1,.354-.171h18.6a.462.462,0,0,1,.352.172.64.64,0,0,1,.144.415ZM402.6,387.214a.639.639,0,0,1-.146.414.46.46,0,0,1-.353.169H383.518a.548.548,0,0,1-.5-.583v-7.442a.553.553,0,0,1,.5-.588H402.1a.549.549,0,0,1,.5.588Zm0-19.3a.64.64,0,0,1-.145.417.461.461,0,0,1-.354.171H383.518a.549.549,0,0,1-.5-.588v-7.46a.549.549,0,0,1,.5-.588H402.1a.461.461,0,0,1,.354.171.64.64,0,0,1,.145.417Zm0-19.294a.549.549,0,0,1-.5.588H383.518a.553.553,0,0,1-.5-.588v-7.464a.553.553,0,0,1,.5-.588H402.1a.549.549,0,0,1,.5.588Zm0-19.3a.64.64,0,0,1-.145.417.461.461,0,0,1-.354.171H383.518a.549.549,0,0,1-.5-.588v-7.438a.549.549,0,0,1,.5-.588H402.1a.461.461,0,0,1,.354.171.64.64,0,0,1,.145.417Zm0-19.294a.549.549,0,0,1-.5.588H383.518a.553.553,0,0,1-.5-.588v-7.464a.548.548,0,0,1,.5-.583H402.1a.46.46,0,0,1,.353.169.639.639,0,0,1,.146.414Zm0-19.294a.639.639,0,0,1-.146.414.46.46,0,0,1-.353.169H383.518a.548.548,0,0,1-.5-.583v-7.464a.553.553,0,0,1,.5-.588H402.1a.549.549,0,0,1,.5.588Zm0-19.3a.64.64,0,0,1-.145.417.461.461,0,0,1-.354.171H383.518a.549.549,0,0,1-.5-.588V264a.549.549,0,0,1,.5-.588H402.1a.461.461,0,0,1,.354.171.64.64,0,0,1,.145.417Zm30.109,115.771a.639.639,0,0,1-.147.414.46.46,0,0,1-.353.169H413.627a.548.548,0,0,1-.5-.583v-7.438a.553.553,0,0,1,.5-.588h18.586a.549.549,0,0,1,.5.588Zm0-19.3a.64.64,0,0,1-.145.417.461.461,0,0,1-.354.171H413.627a.549.549,0,0,1-.5-.588v-7.455a.549.549,0,0,1,.5-.588h18.586a.461.461,0,0,1,.354.171.639.639,0,0,1,.145.417Zm0-19.294a.549.549,0,0,1-.5.588H413.627a.553.553,0,0,1-.5-.588v-7.46a.553.553,0,0,1,.5-.588h18.586a.549.549,0,0,1,.5.588Zm0-19.3a.64.64,0,0,1-.145.417.461.461,0,0,1-.354.171H413.627a.549.549,0,0,1-.5-.588v-7.434a.549.549,0,0,1,.5-.588h18.586a.461.461,0,0,1,.354.171.64.64,0,0,1,.145.417Zm0-19.294a.549.549,0,0,1-.5.588H413.627a.553.553,0,0,1-.5-.588v-7.46a.548.548,0,0,1,.5-.583h18.586a.46.46,0,0,1,.353.169.639.639,0,0,1,.147.414Zm0-19.294a.639.639,0,0,1-.147.414.46.46,0,0,1-.353.169H413.627a.548.548,0,0,1-.5-.583v-7.46a.553.553,0,0,1,.5-.588h18.586a.549.549,0,0,1,.5.588Zm0-19.3a.64.64,0,0,1-.145.417.461.461,0,0,1-.354.171H413.627a.549.549,0,0,1-.5-.588V264a.549.549,0,0,1,.5-.588h18.586a.461.461,0,0,1,.354.171.64.64,0,0,1,.145.417ZM476.776,387.2a.548.548,0,0,1-.5.583H457.691a.46.46,0,0,1-.353-.169.639.639,0,0,1-.146-.414v-7.434a.549.549,0,0,1,.5-.588h18.586a.553.553,0,0,1,.5.588Zm0-19.3a.549.549,0,0,1-.5.588H457.691a.461.461,0,0,1-.354-.171.64.64,0,0,1-.145-.417v-7.451a.639.639,0,0,1,.145-.417.461.461,0,0,1,.354-.171h18.586a.549.549,0,0,1,.5.588Zm0-19.294a.553.553,0,0,1-.5.588H457.691a.549.549,0,0,1-.5-.588v-7.455a.549.549,0,0,1,.5-.588h18.586a.553.553,0,0,1,.5.588Zm0-19.3a.549.549,0,0,1-.5.588H457.691a.544.544,0,0,1-.492-.574v-7.442a.64.64,0,0,1,.145-.417.461.461,0,0,1,.354-.171h18.586a.549.549,0,0,1,.5.588Zm0-19.294a.553.553,0,0,1-.5.588H457.691a.549.549,0,0,1-.5-.588v-7.455a.639.639,0,0,1,.146-.414.46.46,0,0,1,.353-.169h18.586a.548.548,0,0,1,.5.583Zm0-19.294a.548.548,0,0,1-.5.583H457.691a.46.46,0,0,1-.353-.169.639.639,0,0,1-.146-.414v-7.455a.549.549,0,0,1,.5-.588h18.586a.553.553,0,0,1,.5.588Zm0-19.3a.549.549,0,0,1-.5.588H457.691a.544.544,0,0,1-.492-.574V264a.64.64,0,0,1,.145-.417.461.461,0,0,1,.354-.171h18.586a.549.549,0,0,1,.5.588Z" transform="translate(-240.277 -169.839)" fill="#f2f2f2"/>
  <path id="Path_57" data-name="Path 57" d="M276.725,121.614l-5.741,4.283,3.485-7.46a5.181,5.181,0,0,0-3.47-1.458h-.092a5.711,5.711,0,0,1-1.191-.1l-1.946,1.449.832-1.784a7.157,7.157,0,0,1-3.4-3.047l-3.481,2.611,2.2-4.7c-2.035-2.877-4.78-4.64-7.8-4.64-3.622,0-6.848,2.533-8.93,6.481a6.474,6.474,0,0,1-5.919,3.743h-.192c-4,0-7.24,5.336-7.24,11.912s3.255,11.917,7.255,11.917a4.809,4.809,0,0,0,2.519-.744,9.03,9.03,0,0,1,8.764-.2,7.884,7.884,0,0,0,7.451,0,9.033,9.033,0,0,1,8.682.2,4.812,4.812,0,0,0,2.5.744c4,0,7.24-5.336,7.24-11.917a17.282,17.282,0,0,0-1.513-7.281Z" transform="translate(-177.895 -102.36)" fill="#f2f2f2"/>
  <path id="Path_58" data-name="Path 58" d="M265.929,159.191a9.219,9.219,0,0,0-6.2.792,7.893,7.893,0,0,1-7.447,0,9.051,9.051,0,0,0-8.764.2,4.774,4.774,0,0,1-2.523.744c-3.551,0-6.507-4.209-7.121-9.762a7.676,7.676,0,0,0,1.776-2.254c2.083-3.948,5.309-6.481,8.93-6.481s6.807,2.5,8.879,6.411a6.667,6.667,0,0,0,5.9,3.813h.092C262.289,152.632,264.738,155.3,265.929,159.191Z" transform="translate(-177.92 -122.505)" opacity="0.03"/>
  <path id="Path_59" data-name="Path 59" d="M860.355,104.062l-2.871,2.137,1.739-3.721a2.588,2.588,0,0,0-1.731-.727h-.044a2.715,2.715,0,0,1-.6-.052l-.969.727.414-.87a3.6,3.6,0,0,1-1.7-1.515l-1.735,1.306L853.974,99a4.88,4.88,0,0,0-3.888-2.35c-1.805,0-3.415,1.267-4.439,3.234a3.236,3.236,0,0,1-2.96,1.867h-.1c-1.994,0-3.611,2.659-3.611,5.941s1.617,5.941,3.611,5.941a2.391,2.391,0,0,0,1.258-.37,4.507,4.507,0,0,1,4.369-.1,3.942,3.942,0,0,0,3.718,0,4.515,4.515,0,0,1,4.332.1,2.38,2.38,0,0,0,1.243.361c1.994,0,3.611-2.659,3.611-5.941a8.649,8.649,0,0,0-.766-3.621Z" transform="translate(-559.176 -96.65)" fill="#f2f2f2"/>
  <path id="Path_60" data-name="Path 60" d="M854.958,122.789a4.633,4.633,0,0,0-3.1.4,3.972,3.972,0,0,1-1.85.461,4.017,4.017,0,0,1-1.85-.47,4.513,4.513,0,0,0-4.373.1,2.381,2.381,0,0,1-1.258.37c-1.772,0-3.244-2.1-3.551-4.87a3.853,3.853,0,0,0,.888-1.123c1.036-1.967,2.645-3.234,4.439-3.234s3.4,1.249,4.439,3.2a3.324,3.324,0,0,0,2.96,1.9h.048C853.141,119.521,854.362,120.853,854.958,122.789Z" transform="translate(-559.176 -106.686)" opacity="0.03"/>
  <path id="Path_61" data-name="Path 61" d="M659.619,192.332l-3.366,2.511,2.042-4.352a3.044,3.044,0,0,0-2.035-.87H656.2a3.407,3.407,0,0,1-.7-.061l-1.139.87.488-1.049a4.214,4.214,0,0,1-2-1.78l-2.042,1.523,1.291-2.759a5.734,5.734,0,0,0-4.576-2.725c-2.123,0-4.018,1.488-5.238,3.8a3.794,3.794,0,0,1-3.463,2.176h-.115c-2.345,0-4.243,3.129-4.243,6.964s1.9,6.985,4.243,6.985a2.8,2.8,0,0,0,1.48-.435,5.3,5.3,0,0,1,5.138-.118,4.642,4.642,0,0,0,4.369,0,5.305,5.305,0,0,1,5.094.118,2.835,2.835,0,0,0,1.48.435c2.345,0,4.247-3.125,4.247-6.985A10.151,10.151,0,0,0,659.619,192.332Z" transform="translate(-430.322 -145.779)" fill="#f2f2f2"/>
  <path id="Path_62" data-name="Path 62" d="M653.274,214.37a5.425,5.425,0,0,0-3.64.466,4.642,4.642,0,0,1-4.369,0,5.3,5.3,0,0,0-5.138.118,2.806,2.806,0,0,1-1.48.435c-2.083,0-3.818-2.468-4.177-5.723a4.466,4.466,0,0,0,1.04-1.306c1.221-2.315,3.115-3.8,5.238-3.8s4,1.467,5.216,3.756a3.9,3.9,0,0,0,3.459,2.237h.041C651.136,210.523,652.575,212.089,653.274,214.37Z" transform="translate(-430.322 -157.595)" opacity="0.03"/>
  <path id="Path_63" data-name="Path 63" d="M946.082,614.173c0,.749,0,1.5-.041,2.237a61.845,61.845,0,0,1-.88,8.57c-2.43,13.975-9.448,24.839-18.264,28.046a15.735,15.735,0,0,1-5.416.971c-13.588,0-24.6-17.844-24.6-39.823s11.013-39.823,24.6-39.823c12.744,0,23.229,15.694,24.475,35.8C946.041,611.471,946.082,612.815,946.082,614.173Z" transform="translate(-595.656 -366.441)" fill="#36334a"/>
  <path id="Path_64" data-name="Path 64" d="M976.914,628.845a61.836,61.836,0,0,1-.88,8.57c-2.43,13.975-9.448,24.838-18.264,28.046-6.825-3.7-11.89-17.544-11.89-34.065,0-19.35,6.955-35.036,15.537-35.036,7.2,0,13.262,11.063,15.02,26.075C976.681,624.493,976.84,626.643,976.914,628.845Z" transform="translate(-626.529 -378.872)" opacity="0.1"/>
  <path id="Path_65" data-name="Path 65" d="M695.88,453.54s66.589-16.1,101.734-1.306c0,0,5.179,3.047,0,8.269,0,0,4.9,6.093-3.655,8.269l-33.979,2.459-64.1-7.682Z" transform="translate(-469.014 -293.941)" fill="#3f3d56"/>
  <path id="Path_66" data-name="Path 66" d="M727.38,459.6s57.011-13.788,87.1-1.119c0,0,4.439,2.611,0,7.081,0,0,4.191,5.223-3.13,7.081l-29.092,2.1-54.881-6.568Z" transform="translate(-488.861 -297.978)" opacity="0.1"/>
  <path id="Path_67" data-name="Path 67" d="M744.1,481.557l-4.439-10.445s1.946-10.567-13.873-13.675a9.763,9.763,0,0,0-19.17-.339c-2.271.231-4.691.544-7.28.958l-3.618,22.823-.451-1.062s2.3-12.482-18.408-14.306a10.08,10.08,0,0,0,1.761-5.715,9.806,9.806,0,1,0-19.607,0,10.076,10.076,0,0,0,2.057,6.128q-2.9.326-6.126.836l-4.069,25.678,18.867,3.047,29.965-5.223-2.652-6.246,17.08,2.759Z" transform="translate(-440.662 -295.845)" fill="#6c63ff"/>
  <path id="Path_68" data-name="Path 68" d="M744.1,481.557l-4.439-10.445s1.946-10.567-13.873-13.675a9.763,9.763,0,0,0-19.17-.339c-2.271.231-4.691.544-7.28.958l-3.618,22.823-.451-1.062s2.3-12.482-18.408-14.306a10.08,10.08,0,0,0,1.761-5.715,9.806,9.806,0,1,0-19.607,0,10.076,10.076,0,0,0,2.057,6.128q-2.9.326-6.126.836l-4.069,25.678,18.867,3.047,29.965-5.223-2.652-6.246,17.08,2.759Z" transform="translate(-440.662 -295.845)" opacity="0.2"/>
  <path id="Path_69" data-name="Path 69" d="M722.669,444.312s-2.959-19.533,10.728-19.968,9.249,28.29,9.249,28.29,10.358,2.611,11.1,7.4-35.884,6.093-35.884,6.093Z" transform="translate(-482.863 -281.719)" fill="#6c63ff"/>
  <path id="Path_70" data-name="Path 70" d="M554.989,648.331c0,23.067-14.576,41.782-32.555,41.782S489.88,671.4,489.88,648.331s14.757-45.481,32.74-45.481S554.989,625.256,554.989,648.331Z" transform="translate(-339.222 -382.537)" fill="#36334a"/>
  <ellipse id="Ellipse_21" data-name="Ellipse 21" cx="25.896" cy="35.249" rx="25.896" ry="35.249" transform="translate(157.317 232.286)" opacity="0.1"/>
  <ellipse id="Ellipse_22" data-name="Ellipse 22" cx="32.555" cy="41.782" rx="32.555" ry="41.782" transform="translate(7.491 220.091)" fill="#36334a"/>
  <path id="Path_71" data-name="Path 71" d="M316.263,469.35s-15.168.87-14.428,10.445,12.948,2.611,12.948,2.611Z" transform="translate(-220.726 -307.14)" fill="#36334a"/>
  <path id="Path_72" data-name="Path 72" d="M447.542,432.592l6.245-49.029s1.48-6.093-18.5-6.093c0,0-64-4.787-80.277,3.047,0,0-18.867,8.269-45.133,50.922C309.88,431.439,444.952,435.2,447.542,432.592Z" transform="translate(-225.811 -254.432)" fill="#3f3d56"/>
  <path id="Path_73" data-name="Path 73" d="M456.851,388.35l-11.468,53.533-7.192-.2-34.034-.975-75.908-2.176c-.211-4.23,35.736-48,35.736-48Z" transform="translate(-237.384 -261.394)" fill="#36334a"/>
  <path id="Path_74" data-name="Path 74" d="M533.47,464.418l3.1-14.1s-2.96-19.537,10.728-19.973,9.248,28.29,9.248,28.29,9.433,2.381,10.935,6.759Z" transform="translate(-366.686 -285.108)" fill="#6c63ff" opacity="0.2"/>
  <path id="Path_75" data-name="Path 75" d="M433.241,564.251c-2.22-25.243-16.092-30.684-16.092-30.684-13.318-.87-22.2,58.756-22.2,58.756L292.478,603.2s3.514-50.7-21.272-58.974-31.26,51.139-32.37,59.409-149.456-.87-153.525-4.352-2.59-36.994-1.48-39.606S87.9,545.318,87.9,545.318a27.454,27.454,0,0,1,2.086-8.8c.666-1.741,1.243-2.947,1.243-2.947,3.215-21.448,19.906-26.64,21.027-26.984h.059c4.439-5.223,45.5-8.7,45.5-8.7l15.537-3.482,126.323,2.92,5.375.126,64.222-3.634,43.431-2.459c9.988,0,15.168,29.6,15.168,29.6C437.125,547.059,433.241,564.251,433.241,564.251Z" transform="translate(-82.63 -319.565)" fill="#3f3d56"/>
  <path id="Path_119" data-name="Path 119" d="M19.513-1.164C30.29-1.807,38.7,3.821,38.3,11.406S28.832,25.661,18.055,26.3-1.131,21.319-.729,13.734,8.736-.521,19.513-1.164Z" transform="translate(115.782 201.392) rotate(-21.92)" opacity="0.1"/>
  <path id="Path_120" data-name="Path 120" d="M19.513-1.164C30.29-1.807,38.7,3.821,38.3,11.406S28.832,25.661,18.055,26.3-1.131,21.319-.729,13.734,8.736-.521,19.513-1.164Z" transform="translate(115.043 199.649) rotate(-21.92)" fill="#f2f2f2"/>
  <path id="Path_76" data-name="Path 76" d="M126.79,528.39c-.189,4.787-2.012,10.828-5.294,16.647-5.279,9.366-12.519,14.88-16.977,13.266.666-1.741,1.243-2.946,1.243-2.946C108.978,533.909,125.669,528.716,126.79,528.39Z" transform="translate(-96.422 -340.485)" opacity="0.1"/>
  <path id="Path_77" data-name="Path 77" d="M123.79,526.39c-.189,4.788-2.012,10.828-5.294,16.648-5.279,9.366-12.519,14.88-16.977,13.266.666-1.741,1.243-2.946,1.243-2.946C105.978,531.909,122.669,526.716,123.79,526.39Z" transform="translate(-94.532 -339.355)" fill="#f2f2f2"/>
  <path id="Path_78" data-name="Path 78" d="M166.955,453.478H137.73l-1.48-4.788h35.514Z" transform="translate(-85.846 -253.407)" fill="#36334a"/>
  <rect id="Rectangle_18" data-name="Rectangle 18" width="48.092" height="16.539" transform="translate(26.358 235.324)" fill="#36334a"/>
  <ellipse id="Ellipse_25" data-name="Ellipse 25" cx="6.659" cy="7.834" rx="6.659" ry="7.834" transform="translate(119.583 252.298)" opacity="0.1"/>
  <ellipse id="Ellipse_26" data-name="Ellipse 26" cx="6.659" cy="7.834" rx="6.659" ry="7.834" transform="translate(118.843 250.992)" fill="#f2f2f2"/>
  <ellipse id="Ellipse_27" data-name="Ellipse 27" cx="3.329" cy="8.269" rx="3.329" ry="8.269" transform="translate(1.942 245.769)" opacity="0.1"/>
  <ellipse id="Ellipse_28" data-name="Ellipse 28" cx="3.329" cy="8.269" rx="3.329" ry="8.269" transform="translate(0.832 245.334)" fill="#f2f2f2"/>
  <path id="Path_79" data-name="Path 79" d="M749.823,541.546c-4.069,14.8-4.439,37.865-4.439,37.865L743.9,585.5l-72.138,9.575s.37-42.652,1.48-62.673a94.411,94.411,0,0,0-3.9-31.9l5.375.126L738.947,497C749.675,505.848,753.474,528.258,749.823,541.546Z" transform="translate(-452.299 -322.756)" fill="#36334a"/>
  <path id="Path_80" data-name="Path 80" d="M839.532,536.525a1.752,1.752,0,0,0-1.3.8,2.422,2.422,0,0,0-.37,1.673,1.517,1.517,0,0,0,.74,1.136c1.195.7,9.149-.87,12.164-1.5a2.283,2.283,0,0,0,1.709-2.146c.037-.618-.155-1.145-.925-1.145Z" transform="translate(-558.455 -344.415)" fill="#f2f2f2"/>
  <path id="Path_81" data-name="Path 81" d="M668.88,487.231s1.85,9.575,10.728,6.528l2.959-13.492-5.919-3.917Z" transform="translate(-452.003 -311.094)" fill="#36334a"/>
  <path id="Path_82" data-name="Path 82" d="M692.022,452.769c4.069-2.838,10.525-5.318,16.91.64a9.927,9.927,0,0,1,2.179,10.681c-2.09,5.323-7.051,11.1-18.634,4.183a8.023,8.023,0,0,1-2.819-2.933l-.059-.1a10.146,10.146,0,0,1-1.057-6.843A8.883,8.883,0,0,1,692.022,452.769Z" transform="translate(-464.272 -296.074)" fill="#36334a"/>
  <ellipse id="Ellipse_29" data-name="Ellipse 29" cx="7.399" cy="8.705" rx="7.399" ry="8.705" transform="translate(175.999 256.867)" fill="#f2f2f2"/>
  <ellipse id="Ellipse_30" data-name="Ellipse 30" cx="4.069" cy="8.705" rx="4.069" ry="8.705" transform="translate(332.114 241.199)" fill="#f2f2f2"/>
  <rect id="Rectangle_19" data-name="Rectangle 19" width="9.618" height="15.233" rx="4.809" transform="translate(178.404 238.805)" fill="#36334a"/>
  <path id="Path_83" data-name="Path 83" d="M901.189,510.19h0a2.846,2.846,0,0,1,2.59,3.047V520.2c0,2.884-1.988,5.223-4.439,5.223h0a2.846,2.846,0,0,1-2.59-3.047v-6.964c0-2.884,1.988-5.223,4.439-5.223Z" transform="translate(-565.006 -288.141)" fill="#36334a"/>
  <path id="Path_84" data-name="Path 84" d="M983.819,715.083h0c-2.452,0-4.439-2.338-4.439-5.223v-4.787c0-2.885,1.988-5.223,4.439-5.223h0c2.442,0,2.22,2.35,2.22,5.223v4.787C986.035,712.733,986.268,715.083,983.819,715.083Z" transform="translate(-647.636 -437.32)" fill="#36334a"/>
  <path id="Path_85" data-name="Path 85" d="M873.709,556.19h0c2.452,0,4.439,2.338,4.439,5.223v6.528a3.253,3.253,0,0,1-2.96,3.482h0c-2.452,0-4.439-2.338-4.439-5.223v-6.528A3.253,3.253,0,0,1,873.709,556.19Z" transform="translate(-548.625 -314.12)" fill="#36334a"/>
  <path id="Path_86" data-name="Path 86" d="M1019.49,660.2c0,.749,0,1.5-.041,2.237a61.845,61.845,0,0,1-.88,8.57,3.861,3.861,0,0,1-.74.074c-2.452,0-4.439-2.338-4.439-5.223v-4.787c0-2.884,1.988-5.223,4.439-5.223a3.725,3.725,0,0,1,1.147.178,3.944,3.944,0,0,1,.392.148C1019.45,657.5,1019.49,658.844,1019.49,660.2Z" transform="translate(-669.065 -412.47)" fill="#36334a"/>
  <rect id="Rectangle_20" data-name="Rectangle 20" width="9.618" height="15.233" rx="4.809" transform="translate(197.086 257.303)" fill="#36334a"/>
  <rect id="Rectangle_21" data-name="Rectangle 21" width="9.618" height="15.233" rx="4.809" transform="translate(160.831 257.303)" fill="#36334a"/>
  <rect id="Rectangle_22" data-name="Rectangle 22" width="9.618" height="15.233" rx="4.809" transform="translate(178.589 279.935)" fill="#36334a"/>
  <path id="Path_87" data-name="Path 87" d="M906.7,293.3a8.282,8.282,0,0,1-.37,2.433,6.3,6.3,0,0,1-5.694,4.787,6.231,6.231,0,0,1-5.807-4.6,8.221,8.221,0,0,1-.422-2.611c0-3.99,2.749-7.225,6.141-7.225s6.141,3.235,6.141,7.225Z" transform="translate(-594.1 -203.64)" fill="#ff6584"/>
  <path id="Path_88" data-name="Path 88" d="M894.8,292.918c-1.646-3.489-.576-7.887,2.39-9.823a5.482,5.482,0,0,1,2.22-.87,6.025,6.025,0,0,0-5.586,3.711,8.321,8.321,0,0,0,.271,7.54,5.835,5.835,0,0,0,5.832,3.142A6.1,6.1,0,0,1,894.8,292.918Z" transform="translate(-593.244 -201.454)" fill="#ff6584"/>
  <rect id="Rectangle_23" data-name="Rectangle 23" width="16.451" height="30.192" transform="translate(298.786 99.724)" fill="#ff6584"/>
  <rect id="Rectangle_24" data-name="Rectangle 24" width="16.451" height="30.192" transform="translate(299.156 98.853)" opacity="0.1"/>
  <path id="Path_89" data-name="Path 89" d="M798.729,577.46s-1.754,5.658-5.919,6.45a25.741,25.741,0,0,0-6.57,2.054l9.87,7.482,5.264-.775s.655-8,2.849-9.806S798.729,577.46,798.729,577.46Z" transform="translate(-525.947 -368.198)" fill="#fbbebe"/>
  <path id="Path_90" data-name="Path 90" d="M1002.7,577.46s1.754,5.658,5.919,6.45a25.521,25.521,0,0,1,6.578,2.067l-9.87,7.482-5.264-.775s-.655-8-2.849-9.806S1002.7,577.46,1002.7,577.46Z" transform="translate(-658.628 -368.198)" fill="#fbbebe"/>
  <path id="Path_91" data-name="Path 91" d="M835.437,462.44a8.532,8.532,0,0,0-3.511,4.644,15.621,15.621,0,0,0-7.458,6.711s-3.289,4.126-3.729,6.193-5.482,14.467-5.482,14.467-5.042,19.35-7.676,21.418c0,0,8.335-2.067,9.87,7.738,0,0,1.976,0,4.169-9.031s7.454-20.125,7.454-20.125,1.757-7.743,3.292-9.031,3.947-7.225,6.141-5.68,16.67-.257,16.67-.257,8.553,4.644,8.771,7.743,1.757,3.351,1.976,5.932,8.335,22.967,8.335,22.967,1.535,5.658,1.972,6.964c0,0,4.828-13.675,11.187-5.937,0,0-.218-5.162-2.194-8.269s-10.529-27.354-10.529-27.354-.877-3.612-1.753-4.644-7.676-9.288-10.085-9.288c0,0-1.317-3.874-2.852-4.387Z" transform="translate(-539.392 -303.238)" fill="#696880"/>
  <path id="Path_92" data-name="Path 92" d="M793.515,600.507a9.394,9.394,0,0,1-10.443-1.654,20.326,20.326,0,0,0-4.658-3.173c-2.323-1.105-5.109-1.928-5.956-.074-1.535,3.351,18.645,11.612,18.645,11.612S793.733,605.407,793.515,600.507Z" transform="translate(-517.21 -377.826)" fill="#696880"/>
  <path id="Path_93" data-name="Path 93" d="M1003.208,600.507a9.394,9.394,0,0,0,10.443-1.654,20.325,20.325,0,0,1,4.657-3.173c2.323-1.105,5.109-1.928,5.956-.074,1.535,3.351-18.645,11.612-18.645,11.612S1002.99,605.407,1003.208,600.507Z" transform="translate(-662.641 -377.826)" fill="#696880"/>
  <path id="Path_94" data-name="Path 94" d="M891.777,361.293a3.277,3.277,0,0,1-.984,2.346,4.764,4.764,0,0,1-1.82.509,4.517,4.517,0,0,0-2.9,2.942,8.9,8.9,0,0,0-.274,4.592,19.232,19.232,0,0,0,.559,2.207,22.466,22.466,0,0,0,2.623,6.045,23.8,23.8,0,0,0,3.44,3.813,7.877,7.877,0,0,0,2.549,1.867,6.791,6.791,0,0,0,2,.309,3.83,3.83,0,0,0,2.438-.409c1.11-.753,1.443-2.42,2.042-3.752.514-1.136,1.276-2.093,1.754-3.251a14.7,14.7,0,0,0,.74-2.833l1.025-5.358c.37-1.941.71-4.135-.222-5.8a.867.867,0,0,0-.274-.335.876.876,0,0,0-.559-.07,5.316,5.316,0,0,1-3.385-.91,1.4,1.4,0,0,1-.425-.392,2.213,2.213,0,0,1-.263-.918,11.05,11.05,0,0,0-.474-1.941,1.344,1.344,0,0,0-.322-.579,1.039,1.039,0,0,0-.518-.2,36.234,36.234,0,0,0-4.783-.592c-.529-.026-1.321-.274-1.68.27A6.57,6.57,0,0,0,891.777,361.293Z" transform="translate(-588.563 -244.535)" fill="#fbbebe"/>
  <path id="Path_95" data-name="Path 95" d="M891.777,361.293a3.277,3.277,0,0,1-.984,2.346,4.764,4.764,0,0,1-1.82.509,4.517,4.517,0,0,0-2.9,2.942,8.9,8.9,0,0,0-.274,4.592,19.232,19.232,0,0,0,.559,2.207,22.466,22.466,0,0,0,2.623,6.045,23.8,23.8,0,0,0,3.44,3.813,7.877,7.877,0,0,0,2.549,1.867,6.791,6.791,0,0,0,2,.309,3.83,3.83,0,0,0,2.438-.409c1.11-.753,1.443-2.42,2.042-3.752.514-1.136,1.276-2.093,1.754-3.251a14.7,14.7,0,0,0,.74-2.833l1.025-5.358c.37-1.941.71-4.135-.222-5.8a.867.867,0,0,0-.274-.335.876.876,0,0,0-.559-.07,5.316,5.316,0,0,1-3.385-.91,1.4,1.4,0,0,1-.425-.392,2.213,2.213,0,0,1-.263-.918,11.05,11.05,0,0,0-.474-1.941,1.344,1.344,0,0,0-.322-.579,1.039,1.039,0,0,0-.518-.2,36.234,36.234,0,0,0-4.783-.592c-.529-.026-1.321-.274-1.68.27A6.57,6.57,0,0,0,891.777,361.293Z" transform="translate(-588.563 -244.535)" opacity="0.1"/>
  <path id="Path_96" data-name="Path 96" d="M878.571,370.519a8.761,8.761,0,0,0-2.641-.492,6.208,6.208,0,0,0-5.6,2.833,7.667,7.667,0,0,0-.847,4.983,11.147,11.147,0,0,0,1.924,4.644,8.831,8.831,0,0,1,2.22,6.633c.37,3.53,1.65,6.855,2.16,10.363s.067,7.582-2.29,9.819a2.181,2.181,0,0,0-.906,1.362c-.055.953,1,1.362,1.809,1.449a17.585,17.585,0,0,0,7.262-.2c.977-.3,1.913-.779,2.9-1,2.519-.553,5.05.579,7.565,1.127a29,29,0,0,0,5.516.527,2.551,2.551,0,0,0,1.273-.2,1.223,1.223,0,0,0,.644-1.193,2.119,2.119,0,0,0-.437-.87c-1.273-1.854-1.661-4.309-2.009-6.655l-1.147-7.9c-.625-4.213-1.206-8.787.488-12.574,1.221-2.72,3.463-4.635,4.75-7.312a4.855,4.855,0,0,0,.584-2.746,4.077,4.077,0,0,0-2.283-2.873,7.405,7.405,0,0,0-6.433-.274,35.674,35.674,0,0,1-.636,5.658l-.448,3.047a44.725,44.725,0,0,1-1,5.31,6.216,6.216,0,0,1-.8,1.924,4.338,4.338,0,0,1-1.417,1.214,7.393,7.393,0,0,1-3.755,1.005,4.254,4.254,0,0,1-1.657-.3,7.207,7.207,0,0,1-2.283-1.893,4.2,4.2,0,0,1-.6-.766,5.1,5.1,0,0,1-.411-1.162,27.08,27.08,0,0,1-.7-3.255c-.115-.844-.148-1.7-.2-2.555A72.77,72.77,0,0,0,878.571,370.519Z" transform="translate(-578.328 -250.679)" fill="#f2f2f2"/>
  <path id="Path_97" data-name="Path 97" d="M888.122,486.75s-.877,13.675,4.606,16,.659-11.355.659-11.355l-1.754-4.13Z" transform="translate(-590.106 -316.967)" fill="#fbbebe"/>
  <path id="Path_98" data-name="Path 98" d="M926.3,486.75s.877,13.675-4.606,16-.659-11.355-.659-11.355l1.754-4.13Z" transform="translate(-609.642 -316.967)" fill="#fbbebe"/>
  <path id="Path_99" data-name="Path 99" d="M872.183,380.788l-1.754,3.356s1.535,11.612,1.754,13.675a30.967,30.967,0,0,0,.877,4.378s.218,6.193.218,8.513a29.951,29.951,0,0,0,1.11,6.193,32.469,32.469,0,0,0,1.11,6.45c.877,2.842,1.757,6.193,1.757,6.193s1.11-3.612,5.482,1.806a3.535,3.535,0,0,0,0-4.387,79.5,79.5,0,0,1-1.317-10.576c0-3.612-2.412-20.891-2.412-20.891S877.448,375.883,872.183,380.788Z" transform="translate(-578.991 -256.679)" opacity="0.1"/>
  <path id="Path_100" data-name="Path 100" d="M871.014,380.206l-1.754,3.351s1.535,11.612,1.754,13.679a31.159,31.159,0,0,0,.88,4.383s.229,6.193.229,8.522a29.822,29.822,0,0,0,1.11,6.193,32.616,32.616,0,0,0,1.11,6.45c.877,2.838,1.754,6.193,1.754,6.193s1.11-3.612,5.482,1.806a3.53,3.53,0,0,0,0-4.387,79.511,79.511,0,0,1-1.317-10.58c0-3.617-2.412-20.891-2.412-20.891S876.27,375.323,871.014,380.206Z" transform="translate(-578.254 -256.353)" fill="#f2f2f2"/>
  <path id="Path_101" data-name="Path 101" d="M932.59,375.174l1.11,1.536a55.508,55.508,0,0,1-1.557,19.881l-.877,10.067s-1.535,8.513-1.757,10.58-.218,2.32-.655,3.094a1.127,1.127,0,0,0,0,1.306l-1.317,5.68s-1.976-2.838-5.919.775a4.71,4.71,0,0,1-.218-3.874c.892-1.806.877-2.581.659-3.094s.877-3.1.877-3.612,1.535-12.387,1.535-12.387.659-11.612,1.317-15.481a85.135,85.135,0,0,0,.326-11.425c-.07-3.887,3.929-6,6.289-3.26A1.868,1.868,0,0,1,932.59,375.174Z" transform="translate(-610.887 -253.132)" opacity="0.1"/>
  <path id="Path_102" data-name="Path 102" d="M934.35,373.24l1.11,1.536a55.61,55.61,0,0,1-1.557,19.881l-.877,10.062s-1.535,8.517-1.757,10.58-.218,2.324-.658,3.094a1.143,1.143,0,0,0,0,1.306l-1.313,5.658s-1.975-2.838-5.919.775a4.7,4.7,0,0,1-.218-3.869c.892-1.806.877-2.581.655-3.1s.88-3.094.88-3.612,1.535-12.387,1.535-12.387.659-11.612,1.313-15.481.222-15.481.222-15.481A4.53,4.53,0,0,1,934.35,373.24Z" transform="translate(-611.996 -251.711)" fill="#f2f2f2"/>
  <ellipse id="Ellipse_31" data-name="Ellipse 31" cx="8.775" cy="10.324" rx="8.775" ry="10.324" transform="translate(298.893 97.269)" fill="#fbbebe"/>
  <path id="Path_103" data-name="Path 103" d="M907.081,307.5a6.3,6.3,0,0,1-5.694,4.787,6.23,6.23,0,0,1-5.807-4.6,9.35,9.35,0,0,1,6.925-.174A5.347,5.347,0,0,1,907.081,307.5Z" transform="translate(-594.837 -215.408)" opacity="0.1"/>
  <path id="Path_104" data-name="Path 104" d="M891.507,308.711s-16.888-6.964-12.722,26.836c0,0,3.729,2.838,6.581,1.031,0,0-1.975-23.5,5.7-22.449s6.363,21.931,6.363,21.931,4.388,1.549,5.7-1.306S902.694,304.062,891.507,308.711Z" transform="translate(-583.839 -216.081)" fill="#ff6584"/>
  <path id="Path_105" data-name="Path 105" d="M903.022,318.327c-5.268-.709-5.989,10.123-5.919,17,.067-6.829,1.043-16.1,5.919-15.446,5.482.736,6.378,11.6,6.444,17.753C909.525,331.984,909,319.132,903.022,318.327Z" transform="translate(-595.794 -221.828)" opacity="0.1"/>
  <path id="Path_106" data-name="Path 106" d="M878.793,355.957a82.256,82.256,0,0,1-.655-8.957,77.734,77.734,0,0,0,.655,10.489s3.729,2.838,6.581,1.031c0,0-.048-.557-.1-1.493C882.437,358.751,878.793,355.957,878.793,355.957Z" transform="translate(-583.847 -238.041)" opacity="0.1"/>
  <path id="Path_107" data-name="Path 107" d="M936.011,362.016c-1.224,2.642-5.113,1.484-5.642,1.306-.026.958-.059,1.528-.059,1.528s4.388,1.549,5.7-1.306a13.735,13.735,0,0,0,.37-4.444A9.344,9.344,0,0,1,936.011,362.016Z" transform="translate(-616.719 -244.874)" opacity="0.1"/>
  <path id="Path_108" data-name="Path 108" d="M1059.867,686.461c1.014-2.207-.137-4.914-1.458-6.881s-2.934-4.017-2.9-6.528c.052-3.6,3.3-5.732,5.919-7.643a30.258,30.258,0,0,0,5.3-5.014,9.272,9.272,0,0,0,1.628-2.563,12.183,12.183,0,0,0,.488-4.561q-.166-7.717-.647-15.42" transform="translate(-695.602 -402.304)" fill="none" stroke="#3f3d56" stroke-miterlimit="10" stroke-width="4"/>
  <path id="Path_109" data-name="Path 109" d="M1086.838,630.25a5.814,5.814,0,0,0-2.386-4.609l-1.069,2.49.033-3.016a4.158,4.158,0,0,0-1.576-.222c-2.636.145-4.674,2.777-4.551,5.879s2.359,5.5,5,5.355,4.675-2.775,4.553-5.876Z" transform="translate(-709.321 -394.983)" fill="#6c63ff"/>
  <path id="Path_110" data-name="Path 110" d="M1064.692,714.027a4.586,4.586,0,0,1-5.264,2.919,5.446,5.446,0,0,1-3.759-5.226,6.442,6.442,0,0,1,.311-2.285,4.57,4.57,0,0,1,8.945.061l-2.985,2.859,3.281-.9A6.374,6.374,0,0,1,1064.692,714.027Z" transform="translate(-695.699 -440.7)" fill="#6c63ff"/>
  <path id="Path_111" data-name="Path 111" d="M1065.168,684.98c-2.638.145-4.876-2.254-5-5.358a6.408,6.408,0,0,1,.414-2.559,5.133,5.133,0,0,1,3.067-3.116l-.022,2.32,1.08-2.524h0c2.637-.143,4.872,2.256,4.994,5.358a6.431,6.431,0,0,1-.2,1.919,4.991,4.991,0,0,1-4.332,3.961Z" transform="translate(-698.536 -422.572)" fill="#6c63ff"/>
  <path id="Path_112" data-name="Path 112" d="M1096.537,664.109c-2.638.145-4.876-2.254-5-5.358a6.376,6.376,0,0,1,.451-2.664,5.116,5.116,0,0,1,2.867-2.956,4.146,4.146,0,0,1,3.792.454l-.844,2.72,1.735-1.963a6.072,6.072,0,0,1,1.546,3.882,6.455,6.455,0,0,1-.122,1.549A5.063,5.063,0,0,1,1096.537,664.109Z" transform="translate(-718.3 -410.785)" fill="#6c63ff"/>
  <path id="Path_113" data-name="Path 113" d="M1086.2,635.742c-1.11.144-2.179.544-3.285.627a3.265,3.265,0,0,1-3.022-1.245,18.51,18.51,0,0,1-.884-1.828,3.745,3.745,0,0,0-1.2-1.336,6.387,6.387,0,0,0-.514,2.807c.107,2.825,1.982,5.117,4.378,5.352s4.567-1.66,5.071-4.425C1086.557,635.7,1086.376,635.72,1086.2,635.742Z" transform="translate(-709.322 -398.978)" opacity="0.1"/>
  <path id="Path_114" data-name="Path 114" d="M1096.537,668.291c-2.638.145-4.876-2.254-5-5.358a6.375,6.375,0,0,1,.451-2.664,3.925,3.925,0,0,1,.962,1.132,18.216,18.216,0,0,0,.947,1.858,3.585,3.585,0,0,0,3.17,1.306c1.154-.061,2.264-.435,3.415-.57.159,0,.322-.03.481-.035a5.062,5.062,0,0,1-4.428,4.33Z" transform="translate(-718.3 -414.967)" opacity="0.1"/>
  <path id="Path_115" data-name="Path 115" d="M1065.168,689.3c-2.638.145-4.876-2.254-5-5.358a6.408,6.408,0,0,1,.414-2.559,4.327,4.327,0,0,1,1,1.14c.37.618.6,1.306,1.036,1.9a4.059,4.059,0,0,0,3.385,1.4c1.221-.03,2.323-.374,3.5-.479A4.99,4.99,0,0,1,1065.168,689.3Z" transform="translate(-698.536 -426.889)" opacity="0.1"/>
  <path id="Path_116" data-name="Path 116" d="M1064.692,718.7a4.586,4.586,0,0,1-5.264,2.919,5.446,5.446,0,0,1-3.759-5.226,6.442,6.442,0,0,1,.311-2.285,5.174,5.174,0,0,1,1.047,1.1,19.272,19.272,0,0,0,1.28,2,5.459,5.459,0,0,0,3.958,1.641A17.963,17.963,0,0,0,1064.692,718.7Z" transform="translate(-695.699 -445.374)" opacity="0.1"/>
  <path id="Path_117" data-name="Path 117" d="M1047.81,740.59s3.77-.135,4.909-1.088,5.8-2.089,6.085-.561,5.667,7.6,1.409,7.638-9.9-.779-11.031-1.593S1047.81,740.59,1047.81,740.59Z" transform="translate(-690.751 -458.975)" fill="#656380"/>
  <path id="Path_118" data-name="Path 118" d="M1060.288,749.152c-4.258.039-9.9-.783-11.032-1.593-.862-.622-1.206-2.842-1.321-3.869h-.126s.237,3.582,1.372,4.4,6.774,1.632,11.032,1.593c1.228,0,1.654-.527,1.631-1.306C1061.676,748.856,1061.2,749.143,1060.288,749.152Z" transform="translate(-690.751 -462.08)" opacity="0.2"/>
</svg>
