<svg xmlns="http://www.w3.org/2000/svg" xmlns:xlink="http://www.w3.org/1999/xlink" width="320.263" height="278.303" viewBox="0 0 320.263 278.303">
  <defs>
    <linearGradient id="linear-gradient" x1="0.081" y1="1" x2="0.081" gradientUnits="objectBoundingBox">
      <stop offset="0" stop-color="gray" stop-opacity="0.251"/>
      <stop offset="0.54" stop-color="gray" stop-opacity="0.122"/>
      <stop offset="1" stop-color="gray" stop-opacity="0.102"/>
    </linearGradient>
  </defs>
  <g id="undraw_calling_kpbp" transform="translate(0)">
    <ellipse id="Ellipse_9" data-name="Ellipse 9" cx="39.694" cy="3.612" rx="39.694" ry="3.612" transform="translate(176.065 271.08)" fill="#6c63ff" opacity="0.1"/>
    <path id="Path_19" data-name="Path 19" d="M347.413,228.713c-.013,28.343-9.639,55.256-26.338,73.637s-38.794,26.384-60.455,21.9H141.9a79.138,79.138,0,0,1-23.685.607C66.517,318.369,27.1,262.2,27.15,195.089c0-72.008,45.181-130.379,100.912-130.379,44.885,0,82.919,37.864,96.026,90.218,13.521-14.862,30.7-23.006,48.452-22.97C313.886,131.958,347.413,175.276,347.413,228.713Z" transform="translate(-27.15 -64.71)" fill="#6c63ff" opacity="0.1"/>
    <path id="Path_20" data-name="Path 20" d="M330.729,524.461c-16.426,16.571-37.448,23.564-58.026,19.3H153.981a79.137,79.137,0,0,1-23.685.607c-40.189-5.093-74.163-40.636-86.376-90.366,9.666-26.686,34.5-45.676,63.617-45.676,28.373,0,52.692,18.036,62.842,43.653a65.913,65.913,0,0,1,15.148-1.759c29.407,0,54.445,19.384,63.9,46.471a65.546,65.546,0,0,1,24.155-4.59C297.565,492.119,318.644,505,330.729,524.461Z" transform="translate(-39.232 -284.228)" fill="#6c63ff" opacity="0.1"/>
    <path id="Path_21" data-name="Path 21" d="M238.41,675.335c0,9.253-2.748,14.277-7.248,17-16.953-2.115-33.21-9.768-47.241-22.24a43.126,43.126,0,0,1,2.049-9.119l12.8,5.143-11.4-8.668a34.9,34.9,0,0,1,5.828-9.007l21.5,8.639L197.855,644.3a21.948,21.948,0,0,1,22.861-2.064c7.488,3.661,13.361,11.37,16.076,21.1l.059.217c.045.162.089.325.131.491q.226.863.417,1.744c.048.209.092.419.131.632s.081.4.117.607.067.361.1.527c.02.108.039.217.056.325.031.173.059.361.084.524.039.253.078.509.112.762s.07.527.1.791.067.585.1.881.05.527.07.791c0,.083.014.162.02.246.02.231.034.462.048.693,0,.03,0,.06,0,.09q.025.433.042.867t.025.845a.785.785,0,0,1,0,.083C238.407,674.739,238.41,675.035,238.41,675.335Z" transform="translate(-140.097 -432.19)" fill="#6c63ff"/>
    <path id="Path_22" data-name="Path 22" d="M278.439,715.454c0,9.253-2.748,14.277-7.248,17a83.053,83.053,0,0,1-31.71-10.921l.458-.394c2.071-1.773,4.213-3.586,6.65-4.189,2.144-.531,4.355-.083,6.533-.242a14.085,14.085,0,0,0,10.01-5.927c1.557-2.08,2.8-4.634,4.654-6.223a8.3,8.3,0,0,1,6.972-1.654,14.893,14.893,0,0,1,2.063.545l.059.217c.045.163.089.325.131.491q.226.863.417,1.744c.047.209.092.419.131.632s.081.4.117.607.067.361.1.527c.02.108.039.217.056.325.031.173.059.361.084.524.039.253.078.509.112.762s.07.527.1.791.067.585.1.881.05.527.07.791c0,.083.014.162.02.246.02.231.034.462.048.693,0,.03,0,.06,0,.09q.025.433.042.867t.025.845a.785.785,0,0,1,0,.083C278.436,714.858,278.439,715.154,278.439,715.454Z" transform="translate(-180.126 -472.309)" opacity="0.1"/>
    <path id="Path_23" data-name="Path 23" d="M930.207,735.711a17.136,17.136,0,0,1-.224,2.8c-.028.173-.059.343-.089.509-.794,4.114-3.033,7.122-5.705,7.313h-.28c-2.826,0-5.216-3.149-6-7.487-.022-.116-.042-.231-.062-.361a17.136,17.136,0,0,1-.224-2.8c0-5.876,2.815-10.636,6.289-10.636S930.207,729.835,930.207,735.711Z" transform="translate(-668.703 -486.561)" fill="#3f3d56"/>
    <path id="Path_24" data-name="Path 24" d="M930.236,735.743a17.136,17.136,0,0,1-.224,2.8c-.028.173-.059.343-.089.509h-.28a10.1,10.1,0,0,1-2.057-.361,10.221,10.221,0,0,1-1.834.542,10.015,10.015,0,0,1-1.437.173h-.486a10.1,10.1,0,0,1-1.723-.148,10.365,10.365,0,0,1-2.7-.867,10.52,10.52,0,0,1-1.459.506c-.022-.116-.042-.231-.061-.361a17.142,17.142,0,0,1-.224-2.8c0-5.876,2.815-10.636,6.29-10.636S930.236,729.867,930.236,735.743Z" transform="translate(-668.731 -486.593)" opacity="0.1"/>
    <path id="Path_25" data-name="Path 25" d="M904.79,657.359a20.462,20.462,0,0,0-1.37-7.443l-7.4,2.972,6.494-4.93c-2.205-4.119-5.738-6.721-9.6-7.075a16.811,16.811,0,0,0-1-1.7l-10.622,4.273,8.713-6.62c-3.385-3.356-7.843-4.31-11.884-2.541s-7.133,6.026-8.242,11.349l9.1,13.533-9.87-9.224c-5.168,4.735-6.872,13.646-4.006,20.947s9.437,10.788,15.448,8.2a10.116,10.116,0,0,0,8.185.293,10.707,10.707,0,0,0,10.758-3.268,18.7,18.7,0,0,0,4.776-12.876c0-.361,0-.722-.028-1.084A20.971,20.971,0,0,0,904.79,657.359Z" transform="translate(-629.868 -428.022)" fill="#6c63ff"/>
    <path id="Path_26" data-name="Path 26" d="M904.52,701.479a26.513,26.513,0,0,0-11.836-.2c-4.442.95-8.981,3.037-13.325,1.513-2.549-.9-4.752-2.969-7.243-4.121a10.812,10.812,0,0,0-7.478-.578,20.308,20.308,0,0,0,2.428,17.619c3.413,4.75,8.66,6.483,13.419,4.434a10.116,10.116,0,0,0,8.185.293,10.7,10.7,0,0,0,10.767-3.26,18.7,18.7,0,0,0,4.781-12.884c0-.361,0-.722-.028-1.083Q904.392,702.36,904.52,701.479Z" transform="translate(-629.818 -469.079)" opacity="0.1"/>
    <rect id="Rectangle_11" data-name="Rectangle 11" width="2.477" height="26.372" rx="1.238" transform="translate(197.617 90.442)" fill="#3a3768"/>
    <rect id="Rectangle_12" data-name="Rectangle 12" width="1.389" height="8.682" rx="0.695" transform="translate(115.311 69.78)" fill="#3a3768"/>
    <rect id="Rectangle_13" data-name="Rectangle 13" width="1.565" height="15.111" rx="0.783" transform="translate(115.261 85.678)" fill="#3a3768"/>
    <rect id="Rectangle_14" data-name="Rectangle 14" width="1.49" height="15.241" rx="0.745" transform="translate(115.286 106.077)" fill="#3a3768"/>
    <rect id="Rectangle_15" data-name="Rectangle 15" width="82.854" height="217.56" rx="38.99" transform="translate(116.099 41.089)" fill="#3f3d56"/>
    <rect id="Rectangle_16" data-name="Rectangle 16" width="11.57" height="3.034" rx="1.517" transform="translate(149.534 47.587)" fill="#e6e8ec"/>
    <ellipse id="Ellipse_10" data-name="Ellipse 10" cx="1.333" cy="1.723" rx="1.333" ry="1.723" transform="translate(162.851 47.381)" fill="#e6e8ec"/>
    <path id="Path_27" data-name="Path 27" d="M526.819,194.17h-9.476v1.477c0,3.866-2.426,7-5.417,7h-30.24c-2.992,0-5.417-3.134-5.417-7V194.17h-8.9c-3.634,0-6.579,3.807-6.577,8.5V391.895c0,4.695,2.944,8.5,6.577,8.5h59.452c3.634,0,6.58-3.806,6.58-8.5V202.672c0-4.7-2.946-8.5-6.58-8.5Z" transform="translate(-339.573 -147.414)" fill="#6c63ff"/>
    <rect id="Rectangle_17" data-name="Rectangle 17" width="41.651" height="8.668" transform="translate(124.262 80.709)" stroke="#6c63ff" stroke-miterlimit="10" stroke-width="1" opacity="0.1"/>
    <ellipse id="Ellipse_11" data-name="Ellipse 11" cx="8.945" cy="11.557" rx="8.945" ry="11.557" transform="translate(125.38 116.825)" stroke="#6c63ff" stroke-miterlimit="10" stroke-width="1" opacity="0.1"/>
    <path id="Path_28" data-name="Path 28" d="M498.68,407.5v4.334h2.236l2.8,3.774V403.72l-2.8,3.778Z" transform="translate(-366.871 -281.283)" fill="#fff"/>
    <ellipse id="Ellipse_12" data-name="Ellipse 12" cx="8.945" cy="11.557" rx="8.945" ry="11.557" transform="translate(149.14 116.825)" stroke="#6c63ff" stroke-miterlimit="10" stroke-width="1" opacity="0.1"/>
    <path id="Path_29" data-name="Path 29" d="M581.837,411.589a1.1,1.1,0,0,0-.991.847,1.686,1.686,0,0,0,.228,1.506.9.9,0,0,0,1.164.3,1.43,1.43,0,0,0,.66-1.275,1.256,1.256,0,0,0-1.062-1.38Zm-3.131-12.409a1.1,1.1,0,0,0-.993.844,1.687,1.687,0,0,0,.226,1.507.9.9,0,0,0,1.165.3,1.429,1.429,0,0,0,.661-1.276,1.257,1.257,0,0,0-1.059-1.38Zm0,4.139a1.1,1.1,0,0,0-.993.845,1.686,1.686,0,0,0,.227,1.508.9.9,0,0,0,1.166.3,1.431,1.431,0,0,0,.659-1.278A1.253,1.253,0,0,0,578.706,403.319Zm0,4.135a1.1,1.1,0,0,0-.993.844,1.687,1.687,0,0,0,.226,1.507.9.9,0,0,0,1.165.3,1.429,1.429,0,0,0,.661-1.276,1.257,1.257,0,0,0-1.059-1.38Zm6.262-5.515a1.1,1.1,0,0,0,.991-.847,1.686,1.686,0,0,0-.228-1.506.9.9,0,0,0-1.164-.3,1.43,1.43,0,0,0-.66,1.275A1.253,1.253,0,0,0,584.968,401.939Zm-3.131,5.515a1.1,1.1,0,0,0-.991.847,1.686,1.686,0,0,0,.228,1.506.9.9,0,0,0,1.164.3,1.43,1.43,0,0,0,.66-1.275A1.256,1.256,0,0,0,581.837,407.454Zm3.131,0a1.1,1.1,0,0,0-.99.847,1.686,1.686,0,0,0,.228,1.506.9.9,0,0,0,1.164.3,1.43,1.43,0,0,0,.661-1.275A1.256,1.256,0,0,0,584.968,407.454Zm0-4.135a1.1,1.1,0,0,0-.991.848,1.686,1.686,0,0,0,.229,1.506.9.9,0,0,0,1.165.3,1.431,1.431,0,0,0,.659-1.278A1.252,1.252,0,0,0,584.968,403.319Zm-3.131,0a1.1,1.1,0,0,0-.991.847,1.686,1.686,0,0,0,.229,1.506.9.9,0,0,0,1.165.3,1.431,1.431,0,0,0,.659-1.278A1.252,1.252,0,0,0,581.837,403.319Zm0-4.139a1.1,1.1,0,0,0-.991.847,1.686,1.686,0,0,0,.228,1.506.9.9,0,0,0,1.164.3,1.43,1.43,0,0,0,.66-1.275A1.256,1.256,0,0,0,581.837,399.18Z" transform="translate(-423.751 -278.383)" fill="#fff"/>
    <g id="Group_1" data-name="Group 1" transform="translate(125.38 151.496)" opacity="0.4">
      <ellipse id="Ellipse_13" data-name="Ellipse 13" cx="8.945" cy="11.557" rx="8.945" ry="11.557" stroke="#6c63ff" stroke-miterlimit="10" stroke-width="1" opacity="0.1"/>
      <path id="Path_30" data-name="Path 30" d="M501.066,507.32h-3.634v4.7h-1.118v-4.7H492.68v-1.445h3.634v-4.7h1.118v4.7h3.634Z" transform="translate(-487.928 -495.04)" fill="#fff"/>
    </g>
    <ellipse id="Ellipse_14" data-name="Ellipse 14" cx="8.945" cy="11.557" rx="8.945" ry="11.557" transform="translate(172.901 116.825)" stroke="#6c63ff" stroke-miterlimit="10" stroke-width="1" opacity="0.1"/>
    <path id="Path_31" data-name="Path 31" d="M664.71,400.67c-2.816.048-5.069,3.036-5.032,6.674v5.19a2.012,2.012,0,0,0,1.677,2.225h1.677V408.8H660.8v-1.445c0-2.792,1.752-5.056,3.914-5.056s3.914,2.264,3.914,5.056V408.8h-2.236v5.959h1.677a1.542,1.542,0,0,0,1.2-.662,2.568,2.568,0,0,0,.481-1.562v-5.186C669.779,403.706,667.526,400.718,664.71,400.67Z" transform="translate(-482.865 -279.334)" fill="#fff"/>
    <g id="Group_2" data-name="Group 2" transform="translate(149.14 151.496)" opacity="0.4">
      <ellipse id="Ellipse_15" data-name="Ellipse 15" cx="8.945" cy="11.557" rx="8.945" ry="11.557" stroke="#6c63ff" stroke-miterlimit="10" stroke-width="1" opacity="0.1"/>
      <path id="Path_32" data-name="Path 32" d="M580.9,506.183v-2.889a.752.752,0,0,0-.654-.823h-7.922a.753.753,0,0,0-.651.823v8.238a.757.757,0,0,0,.651.823h7.919a.756.756,0,0,0,.654-.823v-2.889l2.516,3.294v-9.047Z" transform="translate(-568.598 -495.864)" fill="#fff"/>
    </g>
    <ellipse id="Ellipse_16" data-name="Ellipse 16" cx="8.945" cy="11.557" rx="8.945" ry="11.557" transform="translate(172.901 151.496)" stroke="#6c63ff" stroke-miterlimit="10" stroke-width="1" opacity="0.1"/>
    <path id="Path_33" data-name="Path 33" d="M662.109,511a2.583,2.583,0,0,1-3.156,0c-1.236.488-1.993,2.1-2.273,3.521h7.7C664.1,513.106,663.347,511.492,662.109,511Zm-1.577-7.584c-1.534,0-2.778,1.6-2.779,3.585s1.243,3.588,2.777,3.588,2.776-1.608,2.775-3.59-1.242-3.583-2.773-3.583Zm0,6.313a2.228,2.228,0,0,1-1.94-1.712h3.877a2.231,2.231,0,0,1-1.937,1.716Z" transform="translate(-480.704 -344.975)" fill="#fff"/>
    <path id="Path_34" data-name="Path 34" d="M678.6,509.011h4.126a4.209,4.209,0,0,0-2.273-3.25,2.667,2.667,0,0,1-1.579.538,2.514,2.514,0,0,1-1.09-.238,4.866,4.866,0,0,1-.732,1.185A4.057,4.057,0,0,1,678.6,509.011Zm-.419-6.23h2.633a2.225,2.225,0,0,1-1.94,1.7,1.624,1.624,0,0,1-.665-.152,5.394,5.394,0,0,1-.17.849,2.393,2.393,0,0,0,2.914-1.028,4.424,4.424,0,0,0,.462-3.857,2.839,2.839,0,0,0-2.538-2.118,2.7,2.7,0,0,0-2.34,1.661,4.531,4.531,0,0,1,1.644,2.94Z" transform="translate(-495.013 -341.628)" fill="#fff"/>
    <ellipse id="Ellipse_17" data-name="Ellipse 17" cx="8.945" cy="11.557" rx="8.945" ry="11.557" transform="translate(149.14 197.725)" fill="#ff6f61"/>
    <path id="Path_35" data-name="Path 35" d="M570.34,641.029a6.854,6.854,0,0,1,1.652-1.474.709.709,0,0,0,.31-.628l.048-2.246a6.615,6.615,0,0,1,5.216.181l-.047,2.246a.815.815,0,0,0,.279.65,6.571,6.571,0,0,1,1.627,1.589.513.513,0,0,0,.391.226.5.5,0,0,0,.4-.2l1.42-1.741a.878.878,0,0,0,.022-1.018c-3.61-4.924-9.626-5.135-13.437-.47a.832.832,0,0,0-.174.506.85.85,0,0,0,.154.516L569.547,641a.512.512,0,0,0,.391.225.5.5,0,0,0,.4-.2Z" transform="translate(-416.848 -428.893)" fill="#fff"/>
    <ellipse id="Ellipse_18" data-name="Ellipse 18" cx="6.988" cy="9.029" rx="6.988" ry="9.029" transform="translate(175.976 78.903)" stroke="#6c63ff" stroke-miterlimit="10" stroke-width="1" opacity="0.1"/>
    <path id="Path_36" data-name="Path 36" d="M673.331,300.374a2.587,2.587,0,0,1-3.159,0c-1.236.488-1.993,2.1-2.273,3.525h7.7C675.324,302.476,674.567,300.862,673.331,300.374Zm-1.579-7.584c-1.533,0-2.778,1.6-2.779,3.584s1.241,3.588,2.775,3.589,2.777-1.605,2.777-3.586S673.283,292.794,671.752,292.79Zm0,6.317a2.234,2.234,0,0,1-1.94-1.712h3.88a2.242,2.242,0,0,1-1.94,1.716Z" transform="translate(-488.788 -210.416)" fill="#fff"/>
    <path id="Path_37" data-name="Path 37" d="M393.488,124.565c-.651-.488-1.532-.022-1.979.762a7.7,7.7,0,0,0-.685,2.756c-.249,2.134-.43,4.587.685,6.2-1.823-7.14-7.064-12.612-12.859-13.41" transform="translate(-280.394 -100.587)" fill="none" stroke="#6c63ff" stroke-miterlimit="10" stroke-width="3" opacity="0.1"/>
    <path id="Path_38" data-name="Path 38" d="M811.192,453.127c-.419-.314-.984,0-1.272.491a4.745,4.745,0,0,0-.442,1.77c-.159,1.376-.28,2.951.442,3.973-1.253-4.677-4.458-8.022-8.26-8.621" transform="translate(-585.157 -311.321)" fill="none" stroke="#6c63ff" stroke-miterlimit="10" stroke-width="3" opacity="0.1"/>
    <path id="Path_39" data-name="Path 39" d="M301.692,323.854c-.419-.311-.984,0-1.272.491a4.746,4.746,0,0,0-.442,1.773c-.159,1.372-.28,2.947.442,3.973-1.254-4.676-4.459-8.021-8.26-8.621" transform="translate(-218.081 -228.738)" fill="none" stroke="#6c63ff" stroke-miterlimit="10" stroke-width="3" opacity="0.1"/>
    <path id="Path_40" data-name="Path 40" d="M723.594,595.389a3.52,3.52,0,0,0,1.311,1.474,56.593,56.593,0,0,0,11.058,6.432.593.593,0,0,0,.637.064.9.9,0,0,0,.437-.6,8.361,8.361,0,0,0,.811-3.8,2.149,2.149,0,0,0,.735-1.271,7.222,7.222,0,0,1,.682-1.806A8.476,8.476,0,0,0,740.5,592.6a7.268,7.268,0,0,1,.1-1.315,4.8,4.8,0,0,1,.839-1.4,8.271,8.271,0,0,0,.892-2.561c.872-3.767,1.744-7.534,2.471-11.358.235-1.239.453-2.481.774-3.684.28-1.055.637-2.066.992-3.077a91.554,91.554,0,0,1,4.419-10.589,34.006,34.006,0,0,0,.948,3.337c.19.56.394,1.112.587,1.672.73,2.109.6,4.818,1.5,6.8q.559,1.221,1.1,2.438a5.645,5.645,0,0,1,.472,1.289c.059.318.064.65.106.972.19,1.445,1.1,2.463,1.6,3.752a25.2,25.2,0,0,1,.839,3.825c.662,3,2.289,5.6,2.454,8.726q.031,1.265-.047,2.528a27.6,27.6,0,0,0,.226,4.4,2.089,2.089,0,0,0,.089.426,10.2,10.2,0,0,1-6.15,5.367,1.631,1.631,0,0,0-1.269.816,1.745,1.745,0,0,0,.559,1.957,2.328,2.328,0,0,0,1.677.26,48.776,48.776,0,0,0,11.844-2.824.971.971,0,0,0,.514-.361,1.653,1.653,0,0,0,.17-.9,9.44,9.44,0,0,0-.615-3.362l.28-.126a10.043,10.043,0,0,0-.867-4.182c-.777-2.337-1.2-4.861-1.817-7.292-1.185-4.7-3.1-9.076-3.561-13.988-.126-1.351-.439-2.723-.506-4.081a67.638,67.638,0,0,0-.746-8.242c-.391-2.218-1.009-4.334-1.4-6.577a15.989,15.989,0,0,1,.056-6.746c.162-.614.38-1.2.528-1.806.559-2.387.025-4.973-.517-7.371q-.257-1.138-.509-2.268c-.226-.993-.45-1.99-.7-2.976.034-.04.064-.079.1-.126.492-.722.486-1.827.839-2.691.173-.444.436-.809.62-1.242a5.771,5.771,0,0,0,.254-3.012c-.148-1.011-.444-1.972-.668-2.958a20.625,20.625,0,0,1-.134-8.307,23.263,23.263,0,0,0,.607-3.514,13.162,13.162,0,0,0-.17-2.395c-.433-3.034-1.283-6.111-3.008-8.115-.92-1.083-2.164-2.033-2.261-3.68a.562.562,0,0,0-.464-.022,8.185,8.185,0,0,1-.156-1.145h.014a.886.886,0,0,0,.257,0,.428.428,0,0,0,.207-.076.631.631,0,0,0,.1-.1,2.4,2.4,0,0,0,.28-.48c.115-.246.218-.509.3-.69s.226-.47.335-.722q.489-1.083.909-2.2v-.029c.028-.069.053-.141.078-.209l.034-.1.05-.148a.436.436,0,0,1,.036-.112c.011-.036.031-.09.045-.137l.039-.119c.014-.043.025-.087.039-.134s.026-.081.036-.123.025-.087.036-.13.022-.083.036-.126.02-.087.031-.13l.034-.13a.514.514,0,0,1,.028-.126l.028-.134.025-.126.025-.137a.278.278,0,0,1,.02-.123c.02-.043,0-.094.02-.141s0-.079,0-.119l.017-.141v-1.12a3.62,3.62,0,0,0-.064-.419,4.553,4.553,0,0,0-1.1-2.142,6.8,6.8,0,0,0-1.677-1.3,1.23,1.23,0,0,1-.4-.321,4.512,4.512,0,0,1-.333-.809,1.808,1.808,0,0,0-1.2-.953,3.063,3.063,0,0,1-1.342-.621.345.345,0,0,0-.117-.087.249.249,0,0,0-.171.047l-1.076.618a.707.707,0,0,0-.208-.433.424.424,0,0,0-.384-.113,1.4,1.4,0,0,0-.7.516.408.408,0,0,1-.064-.332l-.839.722c-.1.087-.294.108-.28-.058a11.7,11.7,0,0,0-1.2,2.167,5.381,5.381,0,0,0-.263.748h0a.846.846,0,0,1-.036.163.132.132,0,0,0,0,.033,1.491,1.491,0,0,1-.022.148.234.234,0,0,0,0,.043v.188h0q0,.1,0,.209a1.209,1.209,0,0,0,.484.961.687.687,0,0,0,.335.069,3.49,3.49,0,0,0,.71-.188,1.3,1.3,0,0,1,.229-.051.551.551,0,0,1,.109,0,.536.536,0,0,1,.4.177l.017.022a6.783,6.783,0,0,0-1.957,4.98,7.808,7.808,0,0,0,.492,2.759.955.955,0,0,0-.349.816,3.512,3.512,0,0,1-.115-.86c-.458-.119-.791.574-.956,1.17a36.261,36.261,0,0,0-.785,4.121c-.143.928-.28,1.856-.425,2.785s-.28,1.925-.386,2.889a28.346,28.346,0,0,0,.26,7.508c-.028.079-.053.163-.078.242-.084.289-.321.535-.349.842a8.556,8.556,0,0,0,1.6,4.937,1,1,0,0,0,.28.361.6.6,0,0,0,.394.065,7.878,7.878,0,0,0,1.012-.13c.02.246.042.488.064.722.24,2.593.651,5.186.649,7.8s-.386,5.259.389,7.584a4.739,4.739,0,0,1,.4,1.134h.047a28.09,28.09,0,0,0-1.157,3.879c-.307,1.568-.372,3.214-.716,4.767-.293,1.318-.783,2.528-1.177,3.814a26.244,26.244,0,0,0-1.118,6.541,10.272,10.272,0,0,1-.475,3,35.727,35.727,0,0,0-1.185,3.529c-.559,2.145-1.5,4.179-1.677,6.45a14.991,14.991,0,0,1-.372,3.821c-.162.455-.4.849-.593,1.279a12.313,12.313,0,0,0-.646,2.167l-2.767,11.857a4.394,4.394,0,0,1-.677,1.759c-.257.318-.6.491-.839.82a3.4,3.4,0,0,0-.492,2.03,2.812,2.812,0,0,0-.855.361,7.49,7.49,0,0,1-7.4,0c-.447-.249-.956-.545-1.4-.26A1.838,1.838,0,0,0,723.594,595.389Zm22.047-89.814a9.09,9.09,0,0,1,.917-2.741c.626-1.333,1.286-2.651,1.884-4.012l.171-.213c.047.173.092.361.134.524q.156.694.249,1.409a8.738,8.738,0,0,1,.078,1.806l-.039.04a1.846,1.846,0,0,0-.528.762,1.964,1.964,0,0,0,0,.953l-.025.036.028-.025a5.051,5.051,0,0,1,.221,1.517,5.129,5.129,0,0,1-.682,1.578c-.559,1.26-.38,3.175-1.3,3.947l-.017.051h0a1.467,1.467,0,0,1-.9-.961h0C745.9,508.7,745.454,507.121,745.641,505.575Z" transform="translate(-528.8 -331.391)" fill="url(#linear-gradient)"/>
    <path id="Path_41" data-name="Path 41" d="M844.982,807.013a1.539,1.539,0,0,1-.176.885,1.033,1.033,0,0,1-.537.361,53.241,53.241,0,0,1-12.339,2.788,2.578,2.578,0,0,1-1.758-.256,1.666,1.666,0,0,1-.559-1.932,1.723,1.723,0,0,1,1.322-.805,10.533,10.533,0,0,0,6.474-5.417,3.776,3.776,0,0,1,.7-1.055,1.983,1.983,0,0,1,1.884-.2,11.779,11.779,0,0,1,3.612,1.354C844.619,803.444,844.965,805.629,844.982,807.013Z" transform="translate(-605.208 -535.235)" fill="#3f3d56"/>
    <path id="Path_42" data-name="Path 42" d="M844.982,807.013a1.539,1.539,0,0,1-.176.885,1.033,1.033,0,0,1-.537.361,53.241,53.241,0,0,1-12.339,2.788,2.578,2.578,0,0,1-1.758-.256,1.666,1.666,0,0,1-.559-1.932,1.723,1.723,0,0,1,1.322-.805,10.533,10.533,0,0,0,6.474-5.417,3.776,3.776,0,0,1,.7-1.055,1.983,1.983,0,0,1,1.884-.2,11.779,11.779,0,0,1,3.612,1.354C844.619,803.444,844.965,805.629,844.982,807.013Z" transform="translate(-605.208 -535.235)" opacity="0.1"/>
    <path id="Path_43" data-name="Path 43" d="M732.172,799.595a1.144,1.144,0,0,1-.523.621.851.851,0,0,1-.6-.09,59.9,59.9,0,0,1-11.522-6.346,3.566,3.566,0,0,1-1.367-1.445,1.758,1.758,0,0,1,.335-2.023c.453-.282.984,0,1.448.256a8.177,8.177,0,0,0,7.715,0,2.506,2.506,0,0,1,1.037-.39c.646-.018,1.2.571,1.677,1.159a17.7,17.7,0,0,1,2.457,3.677C733.382,796.315,732.739,798.421,732.172,799.595Z" transform="translate(-524.883 -528.168)" fill="#3f3d56"/>
    <path id="Path_44" data-name="Path 44" d="M732.172,799.595a1.144,1.144,0,0,1-.523.621.851.851,0,0,1-.6-.09,59.9,59.9,0,0,1-11.522-6.346,3.566,3.566,0,0,1-1.367-1.445,1.758,1.758,0,0,1,.335-2.023c.453-.282.984,0,1.448.256a8.177,8.177,0,0,0,7.715,0,2.506,2.506,0,0,1,1.037-.39c.646-.018,1.2.571,1.677,1.159a17.7,17.7,0,0,1,2.457,3.677C733.382,796.315,732.739,798.421,732.172,799.595Z" transform="translate(-524.883 -528.168)" opacity="0.1"/>
    <path id="Path_45" data-name="Path 45" d="M779.633,624.69c.416,1.445.766,2.889,1.118,4.334l.531,2.239c.559,2.366,1.118,4.915.54,7.274-.154.61-.38,1.185-.559,1.806A15.116,15.116,0,0,0,781.2,647c.4,2.192,1.04,4.3,1.448,6.5a62.076,62.076,0,0,1,.777,8.13c.07,1.34.394,2.694.528,4.027.481,4.843,2.474,9.184,3.709,13.8.64,2.395,1.082,4.883,1.9,7.191a9.468,9.468,0,0,1,.9,4.124,6.97,6.97,0,0,1-6.932-.4.93.93,0,0,1-.47-.842,25.652,25.652,0,0,1-.224-4.334c.053-.826.069-1.656.047-2.485-.171-3.081-1.867-5.648-2.555-8.61a22.969,22.969,0,0,0-.889-3.771c-.526-1.271-1.47-2.286-1.677-3.7-.045-.318-.05-.643-.109-.957a5.454,5.454,0,0,0-.495-1.275l-1.141-2.416c-.936-1.957-.8-4.63-1.557-6.71-.2-.553-.417-1.083-.615-1.647a32.876,32.876,0,0,1-.987-3.294,87.123,87.123,0,0,0-4.612,10.434q-.577,1.483-1.034,3.037c-.335,1.185-.559,2.413-.808,3.633-.755,3.774-1.677,7.49-2.575,11.2a8.013,8.013,0,0,1-.928,2.528,4.7,4.7,0,0,0-.872,1.383,6.812,6.812,0,0,0-.1,1.293,8.257,8.257,0,0,1-1.292,3.25,6.913,6.913,0,0,0-.71,1.806,2.056,2.056,0,0,1-.88,1.334,1.306,1.306,0,0,1-1.357.02h-.022a4.837,4.837,0,0,1-.637-.491,12.565,12.565,0,0,1-1.5-1.445,11,11,0,0,1-1.118-1.7,1.029,1.029,0,0,1-.082-.728.758.758,0,0,1,.4-.522h0a4.3,4.3,0,0,1,.484-2.842c.26-.325.612-.5.88-.809a4.213,4.213,0,0,0,.7-1.734q1.431-5.822,2.857-11.644a11.7,11.7,0,0,1,.674-2.145c.2-.426.447-.813.618-1.26a14.233,14.233,0,0,0,.386-3.771c.182-2.243,1.155-4.244,1.744-6.36a34.139,34.139,0,0,1,1.236-3.485,9.574,9.574,0,0,0,.495-2.958,24.672,24.672,0,0,1,1.163-6.454c.408-1.257.92-2.459,1.224-3.763.361-1.531.425-3.156.749-4.7a26.668,26.668,0,0,1,1.21-3.843,11.174,11.174,0,0,1,1.49-3.034,5.458,5.458,0,0,1,4.238-1.892C776.416,624.6,778.11,624.9,779.633,624.69Z" transform="translate(-551.038 -422.426)" fill="#3f3d56"/>
    <path id="Path_46" data-name="Path 46" d="M809.318,530.538q2.952-2.254,5.839-4.652a5.76,5.76,0,0,1-.729-2.77V523c-.028-.972.257-1.806-.69-1.679a14.524,14.524,0,0,0-2.692.722,21.944,21.944,0,0,1-2.516,1.015,7.765,7.765,0,0,1,1.054,2.55q.161.685.26,1.391C810.034,528.237,810.042,529.7,809.318,530.538Z" transform="translate(-590.107 -356.401)" fill="#a0616a"/>
    <path id="Path_47" data-name="Path 47" d="M801.44,552.809c.252,2.557.679,5.118.676,7.689s-.4,5.19.405,7.494a4.267,4.267,0,0,1,.419,1.12c1.118.249,2.208-.426,3.273-.914a10.812,10.812,0,0,1,3.019-.874,22.324,22.324,0,0,0,2.533-.321,3.727,3.727,0,0,0,2.189-1.445c.512-.722.506-1.806.864-2.655.182-.437.456-.795.649-1.224a5.438,5.438,0,0,0,.263-2.972q-.291-1.481-.7-2.918a19.226,19.226,0,0,1-.14-8.191,22.755,22.755,0,0,0,.632-3.471,12.393,12.393,0,0,0-.176-2.362c-.453-2.99-1.339-6.028-3.134-8-.959-1.058-2.256-2.008-2.356-3.612-.414-.21-.858.148-1.213.488l-3.986,3.8a1.807,1.807,0,0,0-.559.755c-.249.769.324,1.614.232,2.445a5,5,0,0,1-.71,1.56c-.587,1.239-.4,3.128-1.356,3.89-.087.231-.168.469-.24.722a21.993,21.993,0,0,0-.685,3.9A26.171,26.171,0,0,0,801.44,552.809Z" transform="translate(-584.87 -362.011)" fill="#3f3d56"/>
    <path id="Path_48" data-name="Path 48" d="M808.57,522.686a7.763,7.763,0,0,1,1.054,2.55,3.471,3.471,0,0,0,.967.137c1.627,0,2.717-2.409,3.525-4.063-.025-.971.6-.488-.349-.361a14.516,14.516,0,0,0-2.692.722A22.7,22.7,0,0,1,808.57,522.686Z" transform="translate(-590.136 -356.025)" opacity="0.1"/>
    <ellipse id="Ellipse_19" data-name="Ellipse 19" cx="4.573" cy="5.909" rx="4.573" ry="5.909" transform="translate(215.882 157.036)" fill="#a0616a"/>
    <path id="Path_54" data-name="Path 54" d="M.979.036,2.8.264a1.461,1.461,0,0,1,1.214,1.19l.7,5.446a.792.792,0,0,1-.944.919L1.949,7.591A1.461,1.461,0,0,1,.735,6.4L.035.955A.792.792,0,0,1,.979.036Z" transform="translate(218.648 169.374) rotate(-132.39)" fill="#3f3d56"/>
    <path id="Path_55" data-name="Path 55" d="M.979.036,2.8.264a1.461,1.461,0,0,1,1.214,1.19l.7,5.446a.792.792,0,0,1-.944.919L1.949,7.591A1.461,1.461,0,0,1,.735,6.4L.035.955A.792.792,0,0,1,.979.036Z" transform="translate(218.648 169.374) rotate(-132.39)" opacity="0.1"/>
    <ellipse id="Ellipse_20" data-name="Ellipse 20" cx="0.38" cy="0.491" rx="0.38" ry="0.491" transform="translate(220.36 163.562)" fill="#fff"/>
    <path id="Path_49" data-name="Path 49" d="M801.442,560.974c3.528-.672,6.731-3.409,9.183-6.8a5.7,5.7,0,0,0,1.037-2,7.771,7.771,0,0,0,.126-1.947l-.059-2.608a9.044,9.044,0,0,0-.489-3.323c-.428-1-1.381-1.716-2.2-1.3-2.161,1.083-3.567,3.561-4.8,6.1q-.53,1.185-1.155,2.293c-.21.343-.495.693-.839.646a.523.523,0,0,1-.21-.072,21.994,21.994,0,0,0-.685,3.9A26.171,26.171,0,0,0,801.442,560.974Z" transform="translate(-584.873 -370.176)" opacity="0.1"/>
    <path id="Path_50" data-name="Path 50" d="M792.688,530.825a8.666,8.666,0,0,1,.956-2.709c1.367-2.763,2.9-5.461,3.634-8.606-1.065.249-1.233,2.618-2.312,2.723l.084-1.708c0-.289,0-.639-.182-.791s-.506.047-.626.332-.145.632-.257.925-.375.553-.607.423l-.1-.567a.565.565,0,0,0-.57.186.994.994,0,0,0-.238.7,3.3,3.3,0,0,1-.12-.849c-.478-.116-.825.567-1,1.156a34.068,34.068,0,0,0-.822,4.063l-.439,2.748c-.154.95-.3,1.9-.405,2.857a26.6,26.6,0,0,0,.307,7.613,19.068,19.068,0,0,0,1.7-1.376,3.832,3.832,0,0,0,1.054-1.69C793.152,534.473,792.456,532.613,792.688,530.825Z" transform="translate(-576.435 -355.254)" fill="#a0616a"/>
    <path id="Path_51" data-name="Path 51" d="M800.465,540.948c.822-.415,1.775.3,2.2,1.3a9,9,0,0,1,.489,3.323l.056,2.615a7.655,7.655,0,0,1-.123,1.947,5.771,5.771,0,0,1-1.034,2c-2.711,3.753-6.337,6.7-10.307,6.945a.651.651,0,0,1-.411-.065,1.065,1.065,0,0,1-.279-.361,8.235,8.235,0,0,1-1.677-4.872c.025-.3.28-.549.363-.831a6.88,6.88,0,0,1,2.748-3.756l.24-.145a1.52,1.52,0,0,0,.942.953c.335.043.623-.3.839-.646q.624-1.108,1.154-2.3C796.9,544.5,798.307,542.035,800.465,540.948Z" transform="translate(-576.3 -368.873)" fill="#3f3d56"/>
    <path id="Path_52" data-name="Path 52" d="M806.5,501.176c-.389-.26-.45-.928-.489-1.492a18.838,18.838,0,0,0-.232-1.95,3.008,3.008,0,0,0-.794-1.849.937.937,0,0,0-1.121-.071,1.542,1.542,0,0,0-.643,1.187.619.619,0,0,1-.078.336.265.265,0,0,1-.134.09.9.9,0,0,1-1.059-.773c-.081-.361-.02-.827-.218-1.123s-.433-.289-.626-.484a1.665,1.665,0,0,1-.316-1.156c0-.538.056-1.181-.28-1.513-.506-.509-1.266.3-1.862,0a1.271,1.271,0,0,1-.511-1.152,3.43,3.43,0,0,1,.363-1.322,11.289,11.289,0,0,1,1.255-2.134c0,.159.193.141.3.054l.883-.693a.368.368,0,0,0,.07.329,1.457,1.457,0,0,1,.724-.506c.285-.069.56.171.618.538l1.118-.625a.2.2,0,0,1,.3.04,3.415,3.415,0,0,0,1.4.61,1.869,1.869,0,0,1,1.25.943,4.315,4.315,0,0,0,.349.795,1.285,1.285,0,0,0,.422.321,7.1,7.1,0,0,1,1.761,1.282,4.462,4.462,0,0,1,1.143,2.116,7.487,7.487,0,0,1-.64,4.186,29.5,29.5,0,0,1-1.3,2.871,4.107,4.107,0,0,1-.713,1.253A1.064,1.064,0,0,1,806.5,501.176Z" transform="translate(-582.614 -334.366)" fill="#3f3d56"/>
    <path id="Path_53" data-name="Path 53" d="M798.675,497.348c.6.3,1.356-.513,1.862,0,.327.332.28.975.28,1.513a1.664,1.664,0,0,0,.316,1.156c.193.2.467.242.626.484a4.261,4.261,0,0,1,.218,1.123.9.9,0,0,0,1.059.773.266.266,0,0,0,.134-.09.619.619,0,0,0,.078-.336,1.542,1.542,0,0,1,.643-1.187.937.937,0,0,1,1.12.071,3.045,3.045,0,0,1,.794,1.849,18.788,18.788,0,0,1,.232,1.95c.039.563.1,1.232.489,1.492a1.065,1.065,0,0,0,.956.108A4.431,4.431,0,0,0,808.2,505a29.506,29.506,0,0,0,1.3-2.889,10.739,10.739,0,0,0,.688-2.456,7.892,7.892,0,0,1-.688,3.933,29.48,29.48,0,0,1-1.3,2.871,4.1,4.1,0,0,1-.713,1.253,1.064,1.064,0,0,1-.956-.108c-.389-.26-.45-.928-.489-1.492a18.788,18.788,0,0,0-.232-1.95,3.008,3.008,0,0,0-.794-1.849.937.937,0,0,0-1.12-.071,1.542,1.542,0,0,0-.643,1.187.619.619,0,0,1-.078.336.265.265,0,0,1-.134.09.9.9,0,0,1-1.059-.773c-.081-.361-.02-.827-.218-1.123s-.433-.289-.626-.484a1.664,1.664,0,0,1-.316-1.156c0-.538.056-1.181-.28-1.513-.506-.509-1.266.3-1.862,0a1.271,1.271,0,0,1-.512-1.152,2.616,2.616,0,0,1,.14-.755A.878.878,0,0,0,798.675,497.348Z" transform="translate(-582.636 -340.81)" opacity="0.1"/>
  </g>
</svg>
