<svg xmlns="http://www.w3.org/2000/svg" width="281.172" height="262.966" viewBox="0 0 281.172 262.966">
  <g id="undraw_personal_finance_tqcd" transform="translate(0 0)">
    <path id="Path_1" data-name="Path 1" d="M827.7,604.414s34.785,1.8,26.683,12.749-29.392-6.423-29.392-6.423Z" transform="translate(-603.754 -417.58)" fill="#ffb8b8"/>
    <path id="Path_2" data-name="Path 2" d="M633.653,313.448l7.08,1.77s4.13,12.39,7.08,23.6,8.85,44.842,8.85,44.842l45.743,32.058-5.456,12.2-60.937-24.017-13.57-53.287Z" transform="translate(-473.812 -230.913)" fill="#575a89"/>
    <path id="Path_3" data-name="Path 3" d="M440.763,291.607l-2.639,55.261,5.507,16.43L427.5,351.469Z" transform="translate(-274.26 -187.079)" opacity="0.2"/>
    <path id="Path_4" data-name="Path 4" d="M552.317,634.683s7.67,20.651,8.85,34.811,2.36,25.371,2.36,25.371H527.536l-7.08-10.62v10.62H478.565s-11.8-38.351-7.08-43.071,49.562-24.781,49.562-24.781Z" transform="translate(-376.251 -432.079)" fill="#2f2e41"/>
    <rect id="Rectangle_5" data-name="Rectangle 5" width="208.263" height="0.717" transform="translate(36.383 262.249)" fill="#3f3d56"/>
    <circle id="Ellipse_1" data-name="Ellipse 1" cx="22.421" cy="22.421" r="22.421" transform="translate(108.509 15.273)" fill="#ffb8b8"/>
    <path id="Path_5" data-name="Path 5" d="M522.16,214.688l-1.77,25.961,22.421,30.091,11.211-28.321s-10.03-6.49-4.13-20.061Z" transform="translate(-408.341 -167.554)" fill="#ffb8b8"/>
    <path id="Path_6" data-name="Path 6" d="M524.293,402.831c0,5.312-14.75,13.571-14.75,13.571v2.95l-5.9,2.95-12.98-25.959-3.538,28.318s-25.963,4.133-34.222,0-12.392-2.359-24.192-6.488,4.721-59.593,4.721-59.593l-11.8-85.553,25.78-12.89,1.359-.681,3.545-.652,5.434-1,18.163,12.277,1.463,7.671.9,4.721,4.717-5.312,3.563-11.718,25.35,14.08-7.079,56.64S524.293,397.523,524.293,402.831Z" transform="translate(-344.983 -195.212)" fill="#575a89"/>
    <path id="Path_7" data-name="Path 7" d="M455.512,713.428s27.141,21.831,14.161,25.961-20.061-22.421-20.061-22.421Z" transform="translate(-362.934 -487.518)" fill="#ffb8b8"/>
    <path id="Path_8" data-name="Path 8" d="M395.851,301.46l-5.9-1.18s-8.85,4.72-9.44,14.161-8.26,75.523-8.26,75.523l24.781,66.672,20.061-7.67-19.471-62.542,14.75-54.282Z" transform="translate(-313.302 -222.465)" fill="#575a89"/>
    <circle id="Ellipse_2" data-name="Ellipse 2" cx="2.151" cy="2.151" r="2.151" transform="translate(131.374 92.699)" fill="#2f2e41"/>
    <circle id="Ellipse_3" data-name="Ellipse 3" cx="2.151" cy="2.151" r="2.151" transform="translate(131.374 106.679)" fill="#2f2e41"/>
    <circle id="Ellipse_4" data-name="Ellipse 4" cx="2.151" cy="2.151" r="2.151" transform="translate(143.562 198.802)" fill="#2f2e41"/>
    <path id="Path_9" data-name="Path 9" d="M509.752,97.921l-4.145-1.659s8.666-9.541,20.723-8.711l-3.391-3.733s8.289-3.318,15.825,5.393c3.961,4.579,8.545,9.962,11.4,16.025H554.6l-1.853,4.079,6.484,4.079-6.655-.733a22.794,22.794,0,0,1,.181,6.766,8.754,8.754,0,0,1-3.206,5.727h0s-5.14-10.639-5.14-12.3V117s-4.145-3.733-4.145-6.222l-2.261,2.9H522.939l2.261-3.733-8.666,1.244,3.391-4.563-13.417,18.842S498.825,104.143,509.752,97.921Z" transform="translate(-397.751 -83.197)" fill="#2f2e41"/>
    <circle id="Ellipse_5" data-name="Ellipse 5" cx="35.846" cy="35.846" r="35.846" transform="translate(209.481 101.638)" fill="#3f3d56"/>
    <circle id="Ellipse_6" data-name="Ellipse 6" cx="30.827" cy="30.827" r="30.827" transform="translate(214.499 106.657)" opacity="0.1"/>
    <path id="Path_10" data-name="Path 10" d="M877.37,452.214v-4.487a10.418,10.418,0,0,1-5.983-1.955l.938-2.976a9.564,9.564,0,0,0,5.631,1.91,4.313,4.313,0,0,0,4.654-4.353c0-2.443-1.525-3.954-4.419-5.287-3.989-1.777-6.452-3.82-6.452-7.685a6.985,6.985,0,0,1,5.9-7.152v-4.487h2.424v4.309a9.515,9.515,0,0,1,5.084,1.555l-.978,2.932a8.641,8.641,0,0,0-4.927-1.51c-3.011,0-4.145,2.043-4.145,3.82,0,2.31,1.447,3.465,4.849,5.064,4.028,1.866,6.061,4.176,6.061,8.129a7.434,7.434,0,0,1-6.179,7.552v4.62Z" transform="translate(-633.521 -296.539)" fill="#6c63ff"/>
    <path id="Path_11" data-name="Path 11" d="M250.005,501.619,264.341,546.4l-11.471-46.6Z" transform="translate(-160.389 -320.646)" opacity="0.2"/>
    <path id="Path_12" data-name="Path 12" d="M234.93,315.233h-9.1a1.5,1.5,0,0,1-1.5-1.5V300.656a1.5,1.5,0,0,1,1.5-1.5h9.1a1.5,1.5,0,0,1,1.5,1.5v13.081a1.5,1.5,0,0,1-1.5,1.5Zm-9.1-15.356a.78.78,0,0,0-.779.779v13.081a.78.78,0,0,0,.779.779h9.1a.78.78,0,0,0,.779-.779V300.656a.78.78,0,0,0-.779-.779Z" transform="translate(-218.408 -221.746)" fill="#3f3d56"/>
    <path id="Path_13" data-name="Path 13" d="M282.089,289.785h-8.218a1.939,1.939,0,0,1-1.937-1.937V261.43a1.939,1.939,0,0,1,1.937-1.937h8.218a1.939,1.939,0,0,1,1.937,1.937v26.418A1.939,1.939,0,0,1,282.089,289.785Zm-8.218-29.575a1.221,1.221,0,0,0-1.22,1.22v26.418a1.221,1.221,0,0,0,1.22,1.22h8.218a1.221,1.221,0,0,0,1.22-1.22V261.43a1.221,1.221,0,0,0-1.22-1.22Z" transform="translate(-248.945 -196.299)" fill="#3f3d56"/>
    <path id="Path_14" data-name="Path 14" d="M329.372,266.373h-7.583a2.257,2.257,0,0,1-2.254-2.254V225.254A2.257,2.257,0,0,1,321.789,223h7.583a2.257,2.257,0,0,1,2.254,2.254v38.865A2.257,2.257,0,0,1,329.372,266.373Zm-7.583-42.656a1.539,1.539,0,0,0-1.537,1.537v38.865a1.539,1.539,0,0,0,1.537,1.537h7.583a1.539,1.539,0,0,0,1.537-1.537V225.254a1.539,1.539,0,0,0-1.538-1.537Z" transform="translate(-279.483 -172.887)" fill="#3f3d56"/>
    <rect id="Rectangle_6" data-name="Rectangle 6" width="6.825" height="11.091" transform="translate(8.56 79.905)" fill="#6c63ff"/>
    <rect id="Rectangle_7" data-name="Rectangle 7" width="6.825" height="25.167" transform="translate(25.622 65.828)" fill="#6c63ff"/>
    <rect id="Rectangle_8" data-name="Rectangle 8" width="6.825" height="38.248" transform="translate(42.685 52.747)" fill="#6c63ff"/>
    <path id="Path_15" data-name="Path 15" d="M844.834,141.108H797.159a.358.358,0,0,1-.358-.358V92.358a.358.358,0,0,1,.717,0v48.033h47.316a.358.358,0,1,1,0,.717Z" transform="translate(-585.671 -88.844)" fill="#3f3d56"/>
    <path id="Path_16" data-name="Path 16" d="M264.8,255.995H208.159a.358.358,0,0,1-.358-.358V199.358a.358.358,0,1,1,.717,0v55.919H264.8a.358.358,0,0,1,0,.717Z" transform="translate(-207.801 -157.49)" fill="#3f3d56"/>
    <path id="Path_17" data-name="Path 17" d="M824.735,187.7h-9.1a1.5,1.5,0,0,1-1.5-1.5V173.124a1.5,1.5,0,0,1,1.5-1.5h9.1a1.5,1.5,0,0,1,1.5,1.5V186.2A1.5,1.5,0,0,1,824.735,187.7Zm-9.1-15.356a.78.78,0,0,0-.779.779V186.2a.78.78,0,0,0,.779.779h9.1a.78.78,0,0,0,.779-.779V173.124a.78.78,0,0,0-.779-.779Z" transform="translate(-596.794 -139.929)" fill="#3f3d56"/>
    <path id="Path_18" data-name="Path 18" d="M877.373,167.41H869a1.86,1.86,0,0,1-1.858-1.858V141.858A1.86,1.86,0,0,1,869,140h8.376a1.86,1.86,0,0,1,1.858,1.858v23.694A1.86,1.86,0,0,1,877.373,167.41ZM869,140.717a1.142,1.142,0,0,0-1.141,1.141v23.694A1.142,1.142,0,0,0,869,166.693h8.376a1.142,1.142,0,0,0,1.141-1.141V141.858a1.142,1.142,0,0,0-1.141-1.141Z" transform="translate(-630.796 -119.638)" fill="#3f3d56"/>
    <rect id="Rectangle_9" data-name="Rectangle 9" width="6.825" height="11.091" transform="translate(219.815 34.314)" fill="#6c63ff"/>
    <rect id="Rectangle_10" data-name="Rectangle 10" width="6.825" height="21.459" transform="translate(238.977 23.337)" fill="#6c63ff"/>
    <circle id="Ellipse_7" data-name="Ellipse 7" cx="3.226" cy="3.226" r="3.226" transform="translate(220.092 21.437)" fill="#6c63ff"/>
    <circle id="Ellipse_8" data-name="Ellipse 8" cx="3.226" cy="3.226" r="3.226" transform="translate(239.09 9.249)" fill="#6c63ff"/>
  </g>
</svg>
